<?xml version="1.0" encoding="UTF-8"?>
<svg width="39px" height="32px" viewBox="0 0 39 32" version="1.1" xmlns="http://www.w3.org/2000/svg" xmlns:xlink="http://www.w3.org/1999/xlink">
    <title>Artboard</title>
    <g id="Artboard" stroke="none" stroke-width="1" fill="none" fill-rule="evenodd">
        <g id="5ef0e42baa53f4b38b63d816_smaply-web-mainlogo" transform="translate(-1.000000, 0.000000)" fill-rule="nonzero">
            <path d="M37.6,27 C34.6,26.1 32.4,23.8 30.4,21.2 C30.1,21.3 29.8,21.3 29.5,21.3 C27.8,21.3 26.4,19.9 26.4,18.2 C26.4,17.6 26.6,17 26.9,16.5 C24.6,13.6 22.2,11.3 18.4,10.8 C18.2,12.3 16.9,13.4 15.3,13.4 C14.1,13.4 13.1,12.7 12.6,11.7 C10,13.1 8.6,15.7 7.1,18.4 C6,20.4 4.9,22.4 3.3,23.9 C3.3,24 3.3,24.2 3.3,24.3 C3.3,25.8 2.3,27 0.9,27.3 L0.9,29.4 C1,30.9 2.1,32 3.4,32 L37.5,32 C38.8,32 39.9,30.9 39.9,29.6 C38.7,29.3 37.8,28.2 37.6,27 Z" id="Path" fill="#BF0418"></path>
            <path d="M37.5,0 L3.4,0 C2.1,0 1,1.1 1,2.4 L1,21.4 C1.6,21.6 2.1,21.9 2.5,22.3 C3.7,21 4.6,19.3 5.6,17.6 C7.2,14.7 9,11.5 12.3,10 C12.4,8.4 13.8,7.1 15.4,7.1 C16.7,7.1 17.8,7.9 18.3,9 C22.9,9.4 25.8,12.2 28.3,15.3 C28.7,15.1 29.1,15 29.6,15 C31.3,15 32.7,16.4 32.7,18.1 C32.7,18.9 32.4,19.6 31.9,20.2 C33.6,22.4 35.5,24.3 37.9,25.2 C38.3,24.4 39.1,23.7 40,23.5 L40,2.4 C40,1.1 38.9,0 37.5,0 Z" id="Path" fill="#E43417"></path>
            <path d="M40,23.5 C39.1,23.7 38.3,24.4 37.9,25.2 C35.5,24.4 33.6,22.5 31.9,20.2 C32.4,19.6 32.7,18.9 32.7,18.1 C32.7,16.4 31.3,15 29.6,15 C29.1,15 28.7,15.1 28.3,15.3 C25.8,12.1 22.9,9.4 18.3,9 C17.8,7.9 16.7,7.1 15.4,7.1 C13.8,7.1 12.4,8.4 12.3,10 C9,11.6 7.2,14.7 5.6,17.6 C4.6,19.3 3.7,21 2.5,22.3 C2.1,21.9 1.6,21.5 1,21.4 L1,27.5 C2.4,27.2 3.4,25.9 3.4,24.5 C3.4,24.3 3.4,24.2 3.4,24.1 C5,22.5 6.1,20.5 7.2,18.6 C8.7,15.9 10.2,13.3 12.7,11.9 C13.2,12.9 14.3,13.6 15.4,13.6 C16.9,13.6 18.2,12.5 18.5,11 C22.3,11.5 24.8,13.8 27,16.7 C26.7,17.2 26.5,17.8 26.5,18.4 C26.5,20.1 27.9,21.5 29.6,21.5 C29.9,21.5 30.2,21.4 30.5,21.4 C32.5,23.9 34.6,26.2 37.7,27.2 C37.9,28.5 38.8,29.5 40.1,29.8 L40.1,23.5 L40,23.5 Z" id="Path" fill="#FFFFFF"></path>
        </g>
    </g>
</svg>